<svg width="111" height="63" viewBox="0 0 111 63" fill="none" xmlns="http://www.w3.org/2000/svg">
<path d="M26.712 54.64C22.744 54.64 19.3733 53.8293 16.6 52.208C13.8693 50.544 11.7787 48.3893 10.328 45.744C8.92 43.0987 8.216 40.24 8.216 37.168C8.216 34.096 8.92 31.2373 10.328 28.592C11.7787 25.904 13.8693 23.7493 16.6 22.128C19.3733 20.5067 22.744 19.696 26.712 19.696C30.7653 19.696 34.1787 20.5493 36.952 22.256C39.7253 23.9627 41.7947 26.16 43.16 28.848L31.32 32.432C30.168 30.768 28.6107 29.936 26.648 29.936C24.984 29.936 23.576 30.576 22.424 31.856C21.272 33.136 20.696 34.9067 20.696 37.168C20.696 39.4293 21.272 41.2 22.424 42.48C23.576 43.76 24.984 44.4 26.648 44.4C28.6107 44.4 30.168 43.568 31.32 41.904L43.16 45.488C41.7947 48.176 39.7253 50.3733 36.952 52.08C34.1787 53.7867 30.7653 54.64 26.712 54.64Z" fill="white"/>
<path d="M68.3215 54.32C64.8655 54.32 61.7295 53.68 58.9135 52.4C56.0975 51.12 53.6655 49.392 51.6175 47.216C49.6122 44.9973 48.0548 42.5227 46.9455 39.792C45.8788 37.0187 45.3455 34.16 45.3455 31.216C45.3455 28.1867 45.9215 25.3067 47.0735 22.576C48.2255 19.8027 49.8255 17.3493 51.8735 15.216C53.9642 13.0827 56.4175 11.3973 59.2335 10.16C62.0922 8.88 65.2068 8.24 68.5775 8.24C72.0335 8.24 75.1695 8.90133 77.9855 10.224C80.8015 11.5467 83.2122 13.3173 85.2175 15.536C87.2228 17.7547 88.7588 20.2507 89.8255 23.024C90.9348 25.7547 91.4895 28.5707 91.4895 31.472C91.4895 34.2453 90.9775 36.9333 89.9535 39.536C88.9722 42.1387 87.5855 44.464 85.7935 46.512L92.6415 54H80.9935L78.9455 51.824C77.4095 52.592 75.7455 53.2107 73.9535 53.68C72.1615 54.1067 70.2842 54.32 68.3215 54.32ZM68.4495 43.248C69.3028 43.248 70.1135 43.1627 70.8815 42.992L63.3295 34.8H74.9775L77.4735 37.552C77.9428 36.5707 78.2842 35.5467 78.4975 34.48C78.7108 33.4133 78.8175 32.3253 78.8175 31.216C78.8175 29.168 78.4335 27.248 77.6655 25.456C76.8975 23.6213 75.7455 22.1493 74.2095 21.04C72.6735 19.888 70.7322 19.312 68.3855 19.312C65.9962 19.312 64.0335 19.9093 62.4975 21.104C60.9615 22.256 59.8308 23.7493 59.1055 25.584C58.3802 27.4187 58.0175 29.3387 58.0175 31.344C58.0175 33.3493 58.3802 35.2693 59.1055 37.104C59.8735 38.9387 61.0255 40.432 62.5615 41.584C64.1402 42.6933 66.1028 43.248 68.4495 43.248Z" fill="#DC3545"/>
<path d="M16.6 52.208L12.437 59.0395L12.4994 59.0775L12.5624 59.1144L16.6 52.208ZM10.328 45.744L3.26603 49.5028L3.28949 49.5469L3.3135 49.5907L10.328 45.744ZM10.328 28.592L3.28782 24.7925L3.27687 24.8128L3.26603 24.8332L10.328 28.592ZM16.6 22.128L12.5624 15.2216L12.539 15.2353L12.5157 15.2492L16.6 22.128ZM36.952 22.256L32.7592 29.0693L32.7592 29.0693L36.952 22.256ZM43.16 28.848L45.4778 36.5049L54.6169 33.7385L50.2926 25.2251L43.16 28.848ZM31.32 32.432L24.7425 36.9857L28.0598 41.7774L33.6378 40.0889L31.32 32.432ZM22.424 42.48L28.3704 37.1283L22.424 42.48ZM31.32 41.904L33.6378 34.2471L28.0598 32.5586L24.7425 37.3503L31.32 41.904ZM43.16 45.488L50.2926 49.1109L54.6169 40.5975L45.4778 37.8311L43.16 45.488ZM36.952 52.08L32.7592 45.2667L32.7592 45.2667L36.952 52.08ZM26.712 46.64C23.8317 46.64 21.9284 46.0562 20.6376 45.3016L12.5624 59.1144C16.8183 61.6024 21.6563 62.64 26.712 62.64V46.64ZM20.763 45.3765C19.1533 44.3956 18.0795 43.2413 17.3425 41.8973L3.3135 49.5907C5.47782 53.5374 8.58539 56.6924 12.437 59.0395L20.763 45.3765ZM17.39 41.9852C16.6138 40.5269 16.216 38.9634 16.216 37.168H0.216C0.216 41.5166 1.22623 45.6704 3.26603 49.5028L17.39 41.9852ZM16.216 37.168C16.216 35.3726 16.6138 33.8091 17.39 32.3508L3.26603 24.8332C1.22623 28.6656 0.216 32.8194 0.216 37.168H16.216ZM17.3682 32.3915C18.1026 31.0306 19.1479 29.9191 20.6843 29.0068L12.5157 15.2492C8.5908 17.5796 5.45475 20.7774 3.28782 24.7925L17.3682 32.3915ZM20.6376 29.0344C21.9284 28.2798 23.8317 27.696 26.712 27.696V11.696C21.6563 11.696 16.8183 12.7336 12.5624 15.2216L20.6376 29.0344ZM26.712 27.696C29.6454 27.696 31.5221 28.308 32.7592 29.0693L41.1448 15.4427C36.8353 12.7907 31.8853 11.696 26.712 11.696V27.696ZM32.7592 29.0693C34.3818 30.0678 35.3828 31.202 36.0274 32.4709L50.2926 25.2251C48.2065 21.118 45.0689 17.8575 41.1448 15.4427L32.7592 29.0693ZM40.8422 21.1911L29.0022 24.7751L33.6378 40.0889L45.4778 36.5049L40.8422 21.1911ZM37.8975 27.8783C35.3068 24.1362 31.3319 21.936 26.648 21.936V37.936C26.4636 37.936 26.0244 37.8866 25.5183 37.6161C25.0214 37.3507 24.7838 37.0454 24.7425 36.9857L37.8975 27.8783ZM26.648 21.936C22.6277 21.936 19.0866 23.6054 16.4776 26.5043L28.3704 37.2077C28.2937 37.2928 28.0607 37.5143 27.6544 37.6989C27.2415 37.8866 26.87 37.936 26.648 37.936V21.936ZM16.4776 26.5043C13.6339 29.6641 12.696 33.5632 12.696 37.168H28.696C28.696 36.7039 28.7564 36.5548 28.7356 36.6188C28.724 36.6545 28.6929 36.7378 28.6289 36.8509C28.564 36.9654 28.4776 37.0886 28.3704 37.2077L16.4776 26.5043ZM12.696 37.168C12.696 40.7728 13.6339 44.6719 16.4776 47.8317L28.3704 37.1283C28.4776 37.2474 28.564 37.3706 28.6289 37.4851C28.6929 37.5982 28.724 37.6815 28.7356 37.7172C28.7564 37.7812 28.696 37.6321 28.696 37.168H12.696ZM16.4776 47.8317C19.0866 50.7306 22.6277 52.4 26.648 52.4V36.4C26.87 36.4 27.2415 36.4494 27.6544 36.6371C28.0607 36.8217 28.2937 37.0432 28.3704 37.1283L16.4776 47.8317ZM26.648 52.4C31.3319 52.4 35.3068 50.1998 37.8975 46.4577L24.7425 37.3503C24.7838 37.2906 25.0214 36.9853 25.5183 36.7199C26.0244 36.4494 26.4636 36.4 26.648 36.4V52.4ZM29.0022 49.5609L40.8422 53.1449L45.4778 37.8311L33.6378 34.2471L29.0022 49.5609ZM36.0274 41.8651C35.3828 43.134 34.3818 44.2682 32.7592 45.2667L41.1448 58.8933C45.0689 56.4785 48.2065 53.218 50.2926 49.1109L36.0274 41.8651ZM32.7592 45.2667C31.5221 46.028 29.6454 46.64 26.712 46.64V62.64C31.8853 62.64 36.8353 61.5453 41.1448 58.8933L32.7592 45.2667ZM58.9135 52.4L55.6031 59.6829L55.6031 59.6829L58.9135 52.4ZM51.6175 47.216L45.6825 52.5803L45.7366 52.6402L45.7919 52.6989L51.6175 47.216ZM46.9455 39.792L39.4787 42.6638L39.5056 42.7337L39.5338 42.803L46.9455 39.792ZM47.0735 22.576L54.4444 25.6856L54.453 25.6652L54.4615 25.6448L47.0735 22.576ZM51.8735 15.216L46.1598 9.61657L46.1309 9.64601L46.1024 9.67574L51.8735 15.216ZM59.2335 10.16L62.4517 17.4841L62.4773 17.4729L62.5028 17.4615L59.2335 10.16ZM77.9855 10.224L74.5844 17.465L74.5844 17.465L77.9855 10.224ZM85.2175 15.536L79.2825 20.9003L79.2825 20.9003L85.2175 15.536ZM89.8255 23.024L82.3587 25.8958L82.3856 25.9657L82.4138 26.035L89.8255 23.024ZM89.9535 39.536L82.509 36.607L82.4881 36.6601L82.4679 36.7136L89.9535 39.536ZM85.7935 46.512L79.7729 41.244L75.0603 46.6298L79.89 51.9109L85.7935 46.512ZM92.6415 54V62H110.799L98.545 48.6011L92.6415 54ZM80.9935 54L75.1679 59.4829L77.5369 62H80.9935V54ZM78.9455 51.824L84.7711 46.3411L80.6916 42.0067L75.3678 44.6686L78.9455 51.824ZM73.9535 53.68L75.8065 61.4624L75.8937 61.4417L75.9804 61.419L73.9535 53.68ZM70.8815 42.992L72.6169 50.8015L86.1826 47.7869L76.7635 37.5696L70.8815 42.992ZM63.3295 34.8V26.8H45.0738L57.4476 40.2224L63.3295 34.8ZM74.9775 34.8L80.9033 29.4255L78.522 26.8H74.9775V34.8ZM77.4735 37.552L71.5478 42.9265L79.5508 51.7504L84.6906 41.0036L77.4735 37.552ZM77.6655 25.456L70.286 28.5451L70.299 28.5763L70.3123 28.6074L77.6655 25.456ZM74.2095 21.04L69.4095 27.44L69.4672 27.4832L69.5256 27.5254L74.2095 21.04ZM62.4975 21.104L67.2975 27.504L67.3536 27.4619L67.409 27.4188L62.4975 21.104ZM59.1055 25.584L66.5452 28.5253L66.5452 28.5253L59.1055 25.584ZM59.1055 37.104L51.6658 40.0453L51.6952 40.1195L51.726 40.1931L59.1055 37.104ZM62.5615 41.584L57.7615 47.984L57.8606 48.0583L57.9619 48.1295L62.5615 41.584ZM68.3215 46.32C65.873 46.32 63.8844 45.8718 62.2239 45.1171L55.6031 59.6829C59.5746 61.4882 63.858 62.32 68.3215 62.32V46.32ZM62.2239 45.1171C60.3214 44.2523 58.7526 43.1245 57.4431 41.7331L45.7919 52.6989C48.5784 55.6595 51.8736 57.9877 55.6031 59.6829L62.2239 45.1171ZM57.5525 41.8517C56.1635 40.315 55.1101 38.6343 54.3572 36.781L39.5338 42.803C40.9995 46.4111 43.0608 49.6797 45.6825 52.5803L57.5525 41.8517ZM54.4123 36.9202C53.6947 35.0546 53.3455 33.1688 53.3455 31.216H37.3455C37.3455 35.1512 38.0629 38.9828 39.4787 42.6638L54.4123 36.9202ZM53.3455 31.216C53.3455 29.2306 53.7169 27.41 54.4444 25.6856L39.7026 19.4664C38.1261 23.2033 37.3455 27.1428 37.3455 31.216H53.3455ZM54.4615 25.6448C55.2386 23.774 56.2951 22.162 57.6446 20.7563L46.1024 9.67574C43.3559 12.5367 41.2124 15.8313 39.6855 19.5071L54.4615 25.6448ZM57.5872 20.8154C58.9423 19.4327 60.5416 18.3235 62.4517 17.4841L56.0153 2.83584C52.2934 4.47121 48.9861 6.73263 46.1598 9.61657L57.5872 20.8154ZM62.5028 17.4615C64.2565 16.6763 66.2466 16.24 68.5775 16.24V0.239998C64.1671 0.239998 59.9279 1.08374 55.9642 2.85852L62.5028 17.4615ZM68.5775 16.24C70.9892 16.24 72.9454 16.6952 74.5844 17.465L81.3866 2.98297C77.3936 1.10746 73.0778 0.239998 68.5775 0.239998V16.24ZM74.5844 17.465C76.4791 18.355 78.0176 19.5009 79.2825 20.9003L91.1525 10.1717C88.4067 7.1338 85.1239 4.73835 81.3866 2.98296L74.5844 17.465ZM79.2825 20.9003C80.6328 22.3942 81.6474 24.0465 82.3587 25.8958L97.2923 20.1522C95.8702 16.4548 93.8129 13.1151 91.1525 10.1717L79.2825 20.9003ZM82.4138 26.035C83.1409 27.8249 83.4895 29.6195 83.4895 31.472H99.4895C99.4895 27.5218 98.7288 23.6844 97.2372 20.013L82.4138 26.035ZM83.4895 31.472C83.4895 33.2341 83.1691 34.9291 82.509 36.607L97.398 42.465C98.7859 38.9375 99.4895 35.2565 99.4895 31.472H83.4895ZM82.4679 36.7136C81.8169 38.4401 80.92 39.933 79.7729 41.244L91.8141 51.78C94.251 48.995 96.1274 45.8372 97.4391 42.3584L82.4679 36.7136ZM79.89 51.9109L86.738 59.3989L98.545 48.6011L91.697 41.1131L79.89 51.9109ZM92.6415 46H80.9935V62H92.6415V46ZM86.8191 48.5171L84.7711 46.3411L73.1199 57.3069L75.1679 59.4829L86.8191 48.5171ZM75.3678 44.6686C74.3642 45.1704 73.2245 45.6011 71.9266 45.941L75.9804 61.419C78.2665 60.8202 80.4548 60.0136 82.5232 58.9794L75.3678 44.6686ZM72.1005 45.8976C70.9538 46.1706 69.7007 46.32 68.3215 46.32V62.32C70.8676 62.32 73.3692 62.0428 75.8065 61.4624L72.1005 45.8976ZM68.4495 51.248C69.8377 51.248 71.2334 51.109 72.6169 50.8015L69.1461 35.1825C68.9936 35.2164 68.7679 35.248 68.4495 35.248V51.248ZM76.7635 37.5696L69.2114 29.3776L57.4476 40.2224L64.9996 48.4144L76.7635 37.5696ZM63.3295 42.8H74.9775V26.8H63.3295V42.8ZM69.0518 40.1745L71.5478 42.9265L83.3993 32.1775L80.9033 29.4255L69.0518 40.1745ZM84.6906 41.0036C85.4464 39.4232 85.9986 37.7668 86.3421 36.0489L70.6529 32.9111C70.5698 33.3266 70.4392 33.7181 70.2564 34.1004L84.6906 41.0036ZM86.3421 36.0489C86.6608 34.4555 86.8175 32.8417 86.8175 31.216H70.8175C70.8175 31.809 70.7608 32.3711 70.6529 32.9111L86.3421 36.0489ZM86.8175 31.216C86.8175 28.1403 86.2348 25.1424 85.0187 22.3046L70.3123 28.6074C70.6322 29.3536 70.8175 30.1957 70.8175 31.216H86.8175ZM85.045 22.3669C83.7379 19.2442 81.6841 16.5701 78.8934 14.5546L69.5256 27.5254C69.8069 27.7286 70.0571 27.9984 70.286 28.5451L85.045 22.3669ZM79.0095 14.64C75.804 12.2359 72.0698 11.312 68.3855 11.312V27.312C68.9078 27.312 69.2003 27.3762 69.3259 27.4135C69.4367 27.4464 69.4418 27.4642 69.4095 27.44L79.0095 14.64ZM68.3855 11.312C64.6329 11.312 60.8225 12.2719 57.586 14.7892L67.409 27.4188C67.364 27.4538 67.3534 27.443 67.4508 27.4134C67.5647 27.3787 67.8534 27.312 68.3855 27.312V11.312ZM57.6975 14.704C54.9452 16.7682 52.9189 19.4732 51.6658 22.6427L66.5452 28.5253C66.7428 28.0254 66.9778 27.7438 67.2975 27.504L57.6975 14.704ZM51.6658 22.6427C50.5641 25.4295 50.0175 28.3487 50.0175 31.344H66.0175C66.0175 30.3287 66.1963 29.4079 66.5452 28.5253L51.6658 22.6427ZM50.0175 31.344C50.0175 34.3393 50.5641 37.2585 51.6658 40.0453L66.5452 34.1627C66.1963 33.2801 66.0175 32.3593 66.0175 31.344H50.0175ZM51.726 40.1931C53.0232 43.292 55.0443 45.9461 57.7615 47.984L67.3615 35.184C67.0067 34.9179 66.7238 34.5853 66.485 34.0149L51.726 40.1931ZM57.9619 48.1295C61.1561 50.3741 64.8183 51.248 68.4495 51.248V35.248C67.9036 35.248 67.5695 35.1834 67.3932 35.1335C67.2291 35.0872 67.1719 35.0461 67.1611 35.0385L57.9619 48.1295Z" fill="#251E25"/>
</svg>
