<svg id="Capa_1" enable-background="new 0 0 512 512" height="512" fill="#dc3545" viewBox="0 0 512 512" width="512" xmlns="http://www.w3.org/2000/svg"><g><g><path d="m472.61 72.263c-1.157-11.344-10.653-20.144-22.088-20.47-96.187-2.742-159.875-34.868-182.792-48.553-7.236-4.321-16.226-4.319-23.459 0-13.592 8.117-42.822 23.43-85.881 34.794-3.998 1.056-6.384 5.153-5.329 9.151s5.154 6.382 9.151 5.329c44.836-11.834 75.469-27.896 89.738-36.416 2.499-1.494 5.603-1.494 8.103 0 23.925 14.286 90.336 47.823 190.043 50.665 3.945.112 7.219 3.13 7.616 7.019 3.316 32.505 8.518 117.548-14.729 205.019-13.041 49.069-33.136 91.499-59.726 126.111-31.997 41.65-73.868 72.468-124.45 91.598-1.81.684-3.802.684-5.614 0-50.58-19.13-92.451-49.948-124.448-91.598-26.59-34.612-46.685-77.042-59.727-126.111-23.248-87.471-18.045-172.516-14.729-205.019.397-3.889 3.671-6.907 7.617-7.019 22.202-.633 44.289-2.866 65.649-6.639 4.072-.719 6.79-4.604 6.071-8.677-.719-4.072-4.603-6.792-8.676-6.071-20.642 3.646-41.997 5.805-63.47 6.417-11.435.326-20.931 9.126-22.089 20.47-3.399 33.322-8.728 120.527 15.155 210.385 13.553 50.992 34.521 95.198 62.324 131.388 33.719 43.891 77.803 76.353 131.024 96.481 2.614.99 5.361 1.484 8.107 1.484s5.492-.494 8.105-1.484c53.223-20.128 97.307-52.59 131.026-96.481 27.802-36.19 48.771-80.396 62.324-131.388 23.881-89.858 18.553-177.063 15.154-210.385z"/><path d="m82.303 105.282c-2.148 21.063-7.628 95.732 12.074 172.237 10.824 42.028 27.566 78.384 49.76 108.06 26.999 36.098 62.284 62.569 104.878 78.679 2.252.851 4.618 1.277 6.985 1.277 2.366 0 4.734-.426 6.986-1.278 42.592-16.109 77.878-42.579 104.877-78.678 22.194-29.676 38.936-66.031 49.76-108.06 19.702-76.505 14.222-151.174 12.074-172.237-.998-9.781-9.184-17.368-19.041-17.649-76.094-2.169-126.434-27.56-144.544-38.374-6.237-3.726-13.986-3.725-20.223-.001-18.111 10.815-68.451 36.206-144.545 38.375-9.857.281-18.043 7.868-19.041 17.649zm171.265-43.167c.75-.448 1.591-.672 2.432-.672s1.682.224 2.433.673c19.118 11.417 72.182 38.217 151.796 40.487 2.368.067 4.332 1.872 4.569 4.198 2.085 20.438 7.405 92.883-11.678 166.982-22.996 89.293-71.926 148.665-145.431 176.465-1.088.414-2.288.413-3.377.001-73.506-27.802-122.436-87.173-145.432-176.466-19.083-74.098-13.763-146.543-11.678-166.982.237-2.325 2.201-4.131 4.57-4.198 79.613-2.27 132.677-29.07 151.796-40.488z"/><path d="m256 351.411c34.163 0 66.352-16.672 86.106-44.597 2.388-3.376 1.587-8.048-1.789-10.437-3.375-2.389-8.049-1.588-10.437 1.789-16.951 23.963-44.57 38.27-73.88 38.27-49.863 0-90.429-40.566-90.429-90.429s40.566-90.429 90.429-90.429 90.429 40.566 90.429 90.429c0 7.798-.992 15.537-2.95 23.003-1.049 4 1.344 8.093 5.344 9.142 3.999 1.045 8.093-1.344 9.142-5.344 2.282-8.706 3.439-17.722 3.439-26.801 0-58.12-47.284-105.405-105.405-105.405s-105.405 47.284-105.405 105.405 47.286 105.404 105.406 105.404z"/><path d="m295.272 193.426c-6.253.25-12.034 2.92-16.278 7.517l-37.607 40.731-9.312-8.999c-9.288-8.975-24.149-8.723-33.127.565-8.976 9.288-8.724 24.148.565 33.127l26.545 25.655c4.391 4.245 10.173 6.583 16.281 6.583.232 0 .464-.003.667-.01 6.266-.178 12.297-2.922 16.546-7.526l53.866-58.342c8.764-9.491 8.172-24.342-1.32-33.106-4.597-4.244-10.58-6.441-16.826-6.195zm7.143 29.143s-53.866 58.342-53.867 58.343c-3.21 3.477-8.684 3.628-12.083.343-.016-.016-26.545-25.656-26.545-25.656-3.352-3.24-3.443-8.601-.205-11.951 1.656-1.713 3.866-2.575 6.08-2.575 2.116 0 4.234.788 5.873 2.37 0 0 14.799 14.303 14.819 14.323 2.941 2.842 7.925 2.707 10.705-.304 0 0 42.669-46.213 42.804-46.359 7.232-7.832 19.87 3.398 12.419 11.466z"/></g></g></svg>